<svg width="48" height="48" viewBox="0 0 48 48" fill="none" xmlns="http://www.w3.org/2000/svg">
<path fill-rule="evenodd" clip-rule="evenodd" d="M15.44 25.0598C15.1591 24.7786 15.0013 24.3973 15.0013 23.9998C15.0013 23.6023 15.1591 23.2211 15.44 22.9398L30.44 7.93982C30.7244 7.67485 31.1004 7.53061 31.489 7.53747C31.8777 7.54432 32.2484 7.70175 32.5232 7.97657C32.7981 8.2514 32.9555 8.62217 32.9624 9.01077C32.9692 9.39938 32.825 9.77547 32.56 10.0598L18.62 23.9998L32.56 37.9398C32.825 38.2242 32.9692 38.6003 32.9624 38.9889C32.9555 39.3775 32.7981 39.7482 32.5232 40.0231C32.2484 40.2979 31.8776 40.4553 31.489 40.4622C31.1004 40.469 30.7244 40.3248 30.44 40.0598L15.44 25.0598Z" fill="#007AFF"/>
</svg>
