<svg width="279" height="75" viewBox="0 0 279 75" fill="none" xmlns="http://www.w3.org/2000/svg">
<path d="M5.184 8.6H12.096C13.696 8.6 15.168 8.76 16.512 9.08C17.856 9.4 18.9333 9.96533 19.744 10.776C20.576 11.5653 20.992 12.696 20.992 14.168C20.992 15.192 20.7893 16.0453 20.384 16.728C19.9787 17.4107 19.456 17.9227 18.816 18.264C18.1973 18.6053 17.5253 18.7867 16.8 18.808C17.8453 18.8507 18.8053 19.1067 19.68 19.576C20.576 20.0453 21.2907 20.7067 21.824 21.56C22.3573 22.392 22.624 23.4053 22.624 24.6C22.624 26.072 22.1867 27.288 21.312 28.248C20.4587 29.1867 19.2747 29.88 17.76 30.328C16.2667 30.776 14.5493 31 12.608 31H9.696C9.696 31 9.696 30.8613 9.696 30.584C9.71733 30.3067 9.728 30.04 9.728 29.784C9.728 29.5067 9.728 29.368 9.728 29.368H10.4C11.2533 29.368 12.032 29.1973 12.736 28.856C13.4613 28.5147 14.0373 27.96 14.464 27.192C14.8907 26.424 15.104 25.4 15.104 24.12C15.104 23.352 15.0187 22.6693 14.848 22.072C14.6773 21.4533 14.4213 20.9307 14.08 20.504C13.76 20.056 13.344 19.7253 12.832 19.512C12.3413 19.2773 11.7547 19.16 11.072 19.16V18.872C11.584 18.872 12.032 18.776 12.416 18.584C12.8 18.392 13.1093 18.1253 13.344 17.784C13.6 17.4213 13.792 16.984 13.92 16.472C14.048 15.9387 14.112 15.3413 14.112 14.68C14.112 13.528 13.9413 12.632 13.6 11.992C13.28 11.3307 12.8427 10.872 12.288 10.616C11.7333 10.3387 11.104 10.2 10.4 10.2H5.504C5.504 10.1787 5.472 10.04 5.408 9.784C5.36533 9.528 5.312 9.272 5.248 9.016C5.20533 8.73867 5.184 8.6 5.184 8.6ZM9.984 8.6V31H3.424V8.6H9.984ZM3.52 28.664V31H0.96V30.68C1.00267 30.68 1.07733 30.68 1.184 30.68C1.29067 30.68 1.35467 30.68 1.376 30.68C1.93067 30.68 2.4 30.488 2.784 30.104C3.18933 29.6987 3.40267 29.2187 3.424 28.664H3.52ZM3.52 10.936H3.424C3.40267 10.3813 3.18933 9.912 2.784 9.528C2.4 9.12267 1.93067 8.92 1.376 8.92C1.35467 8.92 1.29067 8.92 1.184 8.92C1.07733 8.92 1.00267 8.92 0.96 8.92V8.6H3.52V10.936ZM33.3903 8.6V31H26.8303V8.6H33.3903ZM26.9263 28.664V31H24.3663V30.68C24.3663 30.68 24.4303 30.68 24.5583 30.68C24.7076 30.68 24.7823 30.68 24.7823 30.68C25.3369 30.68 25.8063 30.488 26.1903 30.104C26.5956 29.6987 26.8089 29.2187 26.8303 28.664H26.9263ZM26.9263 10.936H26.8303C26.8089 10.3813 26.5956 9.912 26.1903 9.528C25.8063 9.12267 25.3369 8.92 24.7823 8.92C24.7823 8.92 24.7076 8.92 24.5583 8.92C24.4303 8.92 24.3663 8.92 24.3663 8.92V8.6H26.9263V10.936ZM33.2943 28.664H33.3903C33.4116 29.2187 33.6143 29.6987 33.9983 30.104C34.4036 30.488 34.8836 30.68 35.4383 30.68C35.4383 30.68 35.5023 30.68 35.6303 30.68C35.7583 30.68 35.8329 30.68 35.8543 30.68V31H33.2943V28.664ZM33.2943 10.936V8.6H35.8543V8.92C35.8329 8.92 35.7583 8.92 35.6303 8.92C35.5023 8.92 35.4383 8.92 35.4383 8.92C34.8836 8.92 34.4036 9.12267 33.9983 9.528C33.6143 9.912 33.4116 10.3813 33.3903 10.936H33.2943ZM46.1892 8.152C46.6586 8.152 47.2879 8.17333 48.0773 8.216C48.8666 8.25867 49.6879 8.32267 50.5413 8.408C51.3946 8.472 52.1413 8.54667 52.7812 8.632C53.4213 8.696 53.8373 8.77067 54.0293 8.856L53.3893 13.688H53.0693C53.0693 12.5147 52.6106 11.5653 51.6933 10.84C50.7973 10.1147 49.5599 9.752 47.9813 9.752C46.6799 9.752 45.6453 10.008 44.8773 10.52C44.1093 11.0107 43.6933 11.6507 43.6293 12.44C43.5653 13.208 43.8213 13.8053 44.3973 14.232C44.9946 14.6587 45.6879 15.0533 46.4773 15.416L52.4613 18.2C53.6559 18.7333 54.5946 19.512 55.2773 20.536C55.9599 21.56 56.2479 22.8507 56.1413 24.408C55.9919 26.6907 55.0319 28.44 53.2613 29.656C51.5119 30.8507 49.1226 31.448 46.0933 31.448C44.8559 31.448 43.7359 31.352 42.7333 31.16C41.7306 30.968 40.8666 30.7227 40.1413 30.424C39.4373 30.104 38.8933 29.752 38.5093 29.368C38.2746 28.8347 38.1786 28.184 38.2213 27.416C38.2639 26.648 38.4026 25.8907 38.6373 25.144C38.8933 24.376 39.1919 23.768 39.5333 23.32H39.8213C39.7573 24.4293 39.9919 25.4853 40.5253 26.488C41.0586 27.4907 41.8586 28.3013 42.9253 28.92C43.9919 29.5387 45.2719 29.848 46.7653 29.848C48.3013 29.848 49.4319 29.528 50.1573 28.888C50.9039 28.248 51.2773 27.5227 51.2773 26.712C51.2773 26.0293 51.0106 25.4107 50.4773 24.856C49.9653 24.3013 49.1013 23.7467 47.8853 23.192L42.6693 20.76C41.1973 20.0773 40.1199 19.1387 39.4373 17.944C38.7759 16.7493 38.5413 15.3947 38.7333 13.88C38.8826 12.6427 39.2773 11.5973 39.9173 10.744C40.5573 9.89067 41.3999 9.25067 42.4453 8.824C43.5119 8.376 44.7599 8.152 46.1892 8.152ZM54.0933 8.472L53.9973 9.144H49.3573V8.472H54.0933ZM71.8703 8.696V31H65.3103V8.696H71.8703ZM79.4543 8.568V10.168H57.7263V8.568H79.4543ZM79.4543 10.072V14.584L79.1343 14.552V14.328C79.1343 13.048 78.7716 12.0453 78.0463 11.32C77.3209 10.5733 76.3076 10.1893 75.0063 10.168V10.072H79.4543ZM79.4543 7.992V8.92L75.5503 8.568C76.0196 8.568 76.5103 8.536 77.0223 8.472C77.5556 8.408 78.0463 8.33333 78.4943 8.248C78.9423 8.16267 79.2623 8.07733 79.4543 7.992ZM65.4062 28.664V31H62.8463V30.68C62.8463 30.68 62.9103 30.68 63.0383 30.68C63.1876 30.68 63.2623 30.68 63.2623 30.68C63.8169 30.68 64.2863 30.488 64.6703 30.104C65.0756 29.6987 65.2889 29.2187 65.3103 28.664H65.4062ZM71.7743 28.664H71.8703C71.8916 29.2187 72.0943 29.6987 72.4783 30.104C72.8836 30.488 73.3636 30.68 73.9183 30.68C73.9183 30.68 73.9823 30.68 74.1103 30.68C74.2596 30.68 74.3343 30.68 74.3343 30.68V31H71.7743V28.664ZM62.1743 10.072V10.168C60.8729 10.1893 59.8596 10.5733 59.1343 11.32C58.4089 12.0453 58.0463 13.048 58.0463 14.328V14.552L57.7263 14.584V10.072H62.1743ZM57.7263 7.992C57.9396 8.07733 58.2596 8.16267 58.6863 8.248C59.1343 8.33333 59.6249 8.408 60.1583 8.472C60.6916 8.536 61.1823 8.568 61.6302 8.568L57.7263 8.92V7.992ZM89.51 8.6H93.382C94.342 8.6 95.3233 8.68533 96.326 8.856C97.3287 9.02667 98.246 9.336 99.078 9.784C99.91 10.2107 100.582 10.8187 101.094 11.608C101.606 12.3973 101.862 13.4107 101.862 14.648C101.862 15.4587 101.713 16.3013 101.414 17.176C101.115 18.0293 100.593 18.7867 99.846 19.448C99.1207 20.088 98.086 20.5147 96.742 20.728C97.638 20.984 98.4167 21.4213 99.078 22.04C99.7393 22.6587 100.262 23.288 100.646 23.928C100.689 23.992 100.795 24.1733 100.966 24.472C101.137 24.7707 101.35 25.144 101.606 25.592C101.883 26.0187 102.171 26.4667 102.47 26.936C102.769 27.4053 103.067 27.8427 103.366 28.248C103.857 28.9093 104.283 29.4107 104.646 29.752C105.009 30.0933 105.371 30.328 105.734 30.456C106.118 30.584 106.566 30.6587 107.078 30.68V31H103.078C101.798 31 100.614 30.9253 99.526 30.776C98.438 30.6267 97.4567 30.296 96.582 29.784C95.7287 29.272 94.9713 28.4613 94.31 27.352C94.0753 26.968 93.8833 26.584 93.734 26.2C93.5847 25.816 93.4567 25.4427 93.35 25.08C93.2433 24.7173 93.1473 24.376 93.062 24.056C92.998 23.7147 92.934 23.3947 92.87 23.096C92.806 22.776 92.7313 22.4773 92.646 22.2C92.4327 21.432 92.1767 20.9093 91.878 20.632C91.5793 20.3547 91.2807 20.1627 90.982 20.056V19.736C91.0673 19.736 91.1633 19.736 91.27 19.736C91.3767 19.736 91.4513 19.736 91.494 19.736C92.0913 19.736 92.6247 19.5973 93.094 19.32C93.5633 19.0427 93.958 18.616 94.278 18.04C94.598 17.464 94.8113 16.7173 94.918 15.8C94.9393 15.6293 94.9607 15.448 94.982 15.256C95.0033 15.0427 95.0033 14.7867 94.982 14.488C94.8967 12.9093 94.502 11.8107 93.798 11.192C93.1153 10.5733 92.294 10.264 91.334 10.264C91.2273 10.264 91.0887 10.264 90.918 10.264C90.7473 10.264 90.566 10.264 90.374 10.264C90.182 10.264 90.0007 10.264 89.83 10.264C89.83 10.264 89.798 10.1253 89.734 9.848C89.6913 9.57067 89.638 9.29333 89.574 9.016C89.5313 8.73867 89.51 8.6 89.51 8.6ZM89.926 8.6V31H83.334V8.6H89.926ZM83.43 28.664V31H80.87V30.68C80.9127 30.68 80.9873 30.68 81.094 30.68C81.2007 30.68 81.2647 30.68 81.286 30.68C81.8407 30.68 82.31 30.488 82.694 30.104C83.0993 29.6987 83.3127 29.2187 83.334 28.664H83.43ZM83.43 10.936H83.334C83.3127 10.3813 83.0993 9.912 82.694 9.528C82.31 9.12267 81.8407 8.92 81.286 8.92C81.2647 8.92 81.2007 8.92 81.094 8.92C80.9873 8.92 80.9127 8.92 80.87 8.92V8.6H83.43V10.936ZM89.83 28.664H89.926C89.926 29.2187 90.1287 29.6987 90.534 30.104C90.9393 30.488 91.4193 30.68 91.974 30.68C92.0167 30.68 92.0807 30.68 92.166 30.68C92.2727 30.68 92.3367 30.68 92.358 30.68V31H89.83V28.664ZM118.9 8.152C121.652 8.152 124.02 8.62133 126.004 9.56C128.009 10.4773 129.545 11.8 130.612 13.528C131.679 15.256 132.212 17.3467 132.212 19.8C132.212 22.232 131.679 24.3227 130.612 26.072C129.545 27.8 128.009 29.1333 126.004 30.072C124.02 30.9893 121.652 31.448 118.9 31.448C116.148 31.448 113.78 30.9893 111.796 30.072C109.812 29.1333 108.287 27.8 107.22 26.072C106.153 24.344 105.62 22.2533 105.62 19.8C105.62 17.368 106.153 15.288 107.22 13.56C108.287 11.8107 109.812 10.4773 111.796 9.56C113.78 8.62133 116.148 8.152 118.9 8.152ZM118.9 29.848C120.223 29.848 121.343 29.4533 122.26 28.664C123.199 27.8533 123.913 26.7013 124.404 25.208C124.895 23.7147 125.14 21.912 125.14 19.8C125.14 17.688 124.895 15.8853 124.404 14.392C123.913 12.8987 123.199 11.7573 122.26 10.968C121.343 10.1573 120.223 9.752 118.9 9.752C117.599 9.752 116.479 10.1573 115.54 10.968C114.623 11.7573 113.919 12.8987 113.428 14.392C112.937 15.8853 112.692 17.688 112.692 19.8C112.692 21.912 112.937 23.7147 113.428 25.208C113.919 26.7013 114.623 27.8533 115.54 28.664C116.479 29.4533 117.599 29.848 118.9 29.848ZM146.653 8.6H153.565C155.165 8.6 156.637 8.76 157.981 9.08C159.325 9.4 160.402 9.96533 161.213 10.776C162.045 11.5653 162.461 12.696 162.461 14.168C162.461 15.192 162.258 16.0453 161.853 16.728C161.447 17.4107 160.925 17.9227 160.285 18.264C159.666 18.6053 158.994 18.7867 158.269 18.808C159.314 18.8507 160.274 19.1067 161.149 19.576C162.045 20.0453 162.759 20.7067 163.293 21.56C163.826 22.392 164.093 23.4053 164.093 24.6C164.093 26.072 163.655 27.288 162.781 28.248C161.927 29.1867 160.743 29.88 159.229 30.328C157.735 30.776 156.018 31 154.077 31H151.165C151.165 31 151.165 30.8613 151.165 30.584C151.186 30.3067 151.197 30.04 151.197 29.784C151.197 29.5067 151.197 29.368 151.197 29.368H151.869C152.722 29.368 153.501 29.1973 154.205 28.856C154.93 28.5147 155.506 27.96 155.933 27.192C156.359 26.424 156.573 25.4 156.573 24.12C156.573 23.352 156.487 22.6693 156.317 22.072C156.146 21.4533 155.89 20.9307 155.549 20.504C155.229 20.056 154.813 19.7253 154.301 19.512C153.81 19.2773 153.223 19.16 152.541 19.16V18.872C153.053 18.872 153.501 18.776 153.885 18.584C154.269 18.392 154.578 18.1253 154.813 17.784C155.069 17.4213 155.261 16.984 155.389 16.472C155.517 15.9387 155.581 15.3413 155.581 14.68C155.581 13.528 155.41 12.632 155.069 11.992C154.749 11.3307 154.311 10.872 153.757 10.616C153.202 10.3387 152.573 10.2 151.869 10.2H146.973C146.973 10.1787 146.941 10.04 146.877 9.784C146.834 9.528 146.781 9.272 146.717 9.016C146.674 8.73867 146.653 8.6 146.653 8.6ZM151.453 8.6V31H144.893V8.6H151.453ZM144.989 28.664V31H142.429V30.68C142.471 30.68 142.546 30.68 142.653 30.68C142.759 30.68 142.823 30.68 142.845 30.68C143.399 30.68 143.869 30.488 144.253 30.104C144.658 29.6987 144.871 29.2187 144.893 28.664H144.989ZM144.989 10.936H144.893C144.871 10.3813 144.658 9.912 144.253 9.528C143.869 9.12267 143.399 8.92 142.845 8.92C142.823 8.92 142.759 8.92 142.653 8.92C142.546 8.92 142.471 8.92 142.429 8.92V8.6H144.989V10.936ZM179.744 8.152C182.496 8.152 184.864 8.62133 186.848 9.56C188.853 10.4773 190.389 11.8 191.456 13.528C192.522 15.256 193.056 17.3467 193.056 19.8C193.056 22.232 192.522 24.3227 191.456 26.072C190.389 27.8 188.853 29.1333 186.848 30.072C184.864 30.9893 182.496 31.448 179.744 31.448C176.992 31.448 174.624 30.9893 172.64 30.072C170.656 29.1333 169.13 27.8 168.064 26.072C166.997 24.344 166.464 22.2533 166.464 19.8C166.464 17.368 166.997 15.288 168.064 13.56C169.13 11.8107 170.656 10.4773 172.64 9.56C174.624 8.62133 176.992 8.152 179.744 8.152ZM179.744 29.848C181.066 29.848 182.186 29.4533 183.104 28.664C184.042 27.8533 184.757 26.7013 185.248 25.208C185.738 23.7147 185.984 21.912 185.984 19.8C185.984 17.688 185.738 15.8853 185.248 14.392C184.757 12.8987 184.042 11.7573 183.104 10.968C182.186 10.1573 181.066 9.752 179.744 9.752C178.442 9.752 177.322 10.1573 176.384 10.968C175.466 11.7573 174.762 12.8987 174.272 14.392C173.781 15.8853 173.536 17.688 173.536 19.8C173.536 21.912 173.781 23.7147 174.272 25.208C174.762 26.7013 175.466 27.8533 176.384 28.664C177.322 29.4533 178.442 29.848 179.744 29.848ZM203.72 8.152C204.19 8.152 204.819 8.17333 205.609 8.216C206.398 8.25867 207.219 8.32267 208.073 8.408C208.926 8.472 209.673 8.54667 210.312 8.632C210.953 8.696 211.369 8.77067 211.561 8.856L210.921 13.688H210.601C210.601 12.5147 210.142 11.5653 209.225 10.84C208.329 10.1147 207.091 9.752 205.513 9.752C204.211 9.752 203.177 10.008 202.409 10.52C201.641 11.0107 201.225 11.6507 201.161 12.44C201.097 13.208 201.353 13.8053 201.929 14.232C202.526 14.6587 203.219 15.0533 204.009 15.416L209.993 18.2C211.187 18.7333 212.126 19.512 212.809 20.536C213.491 21.56 213.779 22.8507 213.673 24.408C213.523 26.6907 212.563 28.44 210.793 29.656C209.043 30.8507 206.654 31.448 203.625 31.448C202.387 31.448 201.267 31.352 200.265 31.16C199.262 30.968 198.398 30.7227 197.673 30.424C196.969 30.104 196.425 29.752 196.041 29.368C195.806 28.8347 195.71 28.184 195.753 27.416C195.795 26.648 195.934 25.8907 196.169 25.144C196.425 24.376 196.723 23.768 197.065 23.32H197.353C197.289 24.4293 197.523 25.4853 198.057 26.488C198.59 27.4907 199.39 28.3013 200.457 28.92C201.523 29.5387 202.803 29.848 204.297 29.848C205.833 29.848 206.963 29.528 207.689 28.888C208.435 28.248 208.809 27.5227 208.809 26.712C208.809 26.0293 208.542 25.4107 208.009 24.856C207.497 24.3013 206.633 23.7467 205.417 23.192L200.201 20.76C198.729 20.0773 197.651 19.1387 196.969 17.944C196.307 16.7493 196.073 15.3947 196.265 13.88C196.414 12.6427 196.809 11.5973 197.449 10.744C198.089 9.89067 198.931 9.25067 199.977 8.824C201.043 8.376 202.291 8.152 203.72 8.152ZM211.625 8.472L211.529 9.144H206.889V8.472H211.625ZM224.345 8.152C224.815 8.152 225.444 8.17333 226.234 8.216C227.023 8.25867 227.844 8.32267 228.698 8.408C229.551 8.472 230.298 8.54667 230.938 8.632C231.578 8.696 231.994 8.77067 232.186 8.856L231.546 13.688H231.226C231.226 12.5147 230.767 11.5653 229.85 10.84C228.954 10.1147 227.716 9.752 226.138 9.752C224.836 9.752 223.802 10.008 223.034 10.52C222.266 11.0107 221.85 11.6507 221.786 12.44C221.722 13.208 221.978 13.8053 222.554 14.232C223.151 14.6587 223.844 15.0533 224.634 15.416L230.618 18.2C231.812 18.7333 232.751 19.512 233.434 20.536C234.116 21.56 234.404 22.8507 234.298 24.408C234.148 26.6907 233.188 28.44 231.418 29.656C229.668 30.8507 227.279 31.448 224.25 31.448C223.012 31.448 221.892 31.352 220.89 31.16C219.887 30.968 219.023 30.7227 218.298 30.424C217.594 30.104 217.05 29.752 216.666 29.368C216.431 28.8347 216.335 28.184 216.378 27.416C216.42 26.648 216.559 25.8907 216.794 25.144C217.05 24.376 217.348 23.768 217.69 23.32H217.978C217.914 24.4293 218.148 25.4853 218.682 26.488C219.215 27.4907 220.015 28.3013 221.082 28.92C222.148 29.5387 223.428 29.848 224.922 29.848C226.458 29.848 227.588 29.528 228.314 28.888C229.06 28.248 229.434 27.5227 229.434 26.712C229.434 26.0293 229.167 25.4107 228.634 24.856C228.122 24.3013 227.258 23.7467 226.042 23.192L220.826 20.76C219.354 20.0773 218.276 19.1387 217.594 17.944C216.932 16.7493 216.698 15.3947 216.89 13.88C217.039 12.6427 217.434 11.5973 218.074 10.744C218.714 9.89067 219.556 9.25067 220.602 8.824C221.668 8.376 222.916 8.152 224.345 8.152ZM232.25 8.472L232.154 9.144H227.514V8.472H232.25Z" fill="white"/>
<path d="M6.216 49.2H9.312C10.032 49.2 10.736 49.28 11.424 49.44C12.112 49.6 12.72 49.856 13.248 50.208C13.792 50.56 14.224 51.024 14.544 51.6C14.864 52.176 15.024 52.888 15.024 53.736C15.024 54.408 14.88 55.08 14.592 55.752C14.32 56.408 13.896 56.976 13.32 57.456C12.744 57.92 12 58.2 11.088 58.296C11.6 58.456 12.064 58.744 12.48 59.16C12.912 59.576 13.264 59.992 13.536 60.408C13.552 60.44 13.64 60.584 13.8 60.84C13.976 61.096 14.184 61.416 14.424 61.8C14.68 62.168 14.944 62.544 15.216 62.928C15.488 63.312 15.736 63.648 15.96 63.936C16.312 64.368 16.632 64.72 16.92 64.992C17.208 65.248 17.512 65.44 17.832 65.568C18.152 65.68 18.52 65.744 18.936 65.76V66H16.584C15.72 66 14.936 65.928 14.232 65.784C13.528 65.624 12.904 65.36 12.36 64.992C11.816 64.624 11.344 64.128 10.944 63.504C10.816 63.312 10.672 63.072 10.512 62.784C10.368 62.48 10.216 62.16 10.056 61.824C9.896 61.488 9.736 61.168 9.576 60.864C9.432 60.544 9.304 60.256 9.192 60C9.08 59.744 9 59.544 8.952 59.4C8.744 58.888 8.496 58.504 8.208 58.248C7.936 57.992 7.64 57.84 7.32 57.792V57.552C7.368 57.552 7.464 57.552 7.608 57.552C7.752 57.552 7.904 57.552 8.064 57.552C8.496 57.552 8.912 57.464 9.312 57.288C9.728 57.112 10.096 56.824 10.416 56.424C10.736 56.024 10.96 55.472 11.088 54.768C11.12 54.624 11.144 54.456 11.16 54.264C11.192 54.072 11.2 53.856 11.184 53.616C11.136 52.464 10.848 51.624 10.32 51.096C9.792 50.552 9.136 50.272 8.352 50.256C8.128 50.24 7.88 50.24 7.608 50.256C7.352 50.256 7.112 50.256 6.888 50.256C6.68 50.256 6.536 50.256 6.456 50.256C6.456 50.24 6.432 50.152 6.384 49.992C6.352 49.816 6.312 49.64 6.264 49.464C6.232 49.288 6.216 49.2 6.216 49.2ZM6.528 49.2V66H2.928V49.2H6.528ZM3 64.248V66H1.08V65.76C1.096 65.76 1.144 65.76 1.224 65.76C1.32 65.76 1.376 65.76 1.392 65.76C1.808 65.76 2.16 65.616 2.448 65.328C2.752 65.024 2.912 64.664 2.928 64.248H3ZM3 50.952H2.928C2.912 50.536 2.752 50.184 2.448 49.896C2.16 49.592 1.808 49.44 1.392 49.44C1.376 49.44 1.32 49.44 1.224 49.44C1.144 49.44 1.096 49.44 1.08 49.44V49.2H3V50.952ZM6.456 64.248H6.528C6.528 64.664 6.68 65.024 6.984 65.328C7.288 65.616 7.648 65.76 8.064 65.76C8.096 65.76 8.152 65.76 8.232 65.76C8.312 65.76 8.352 65.76 8.352 65.76V66H6.456V64.248ZM32.6484 51.6V66H29.1924V51.6H32.6484ZM38.2644 65.04L38.8164 66H32.6004V65.04H38.2644ZM37.4484 58.392V59.352H32.6004V58.392H37.4484ZM38.5284 51.6V52.56H32.6004V51.6H38.5284ZM39.8004 61.584L38.8884 66H34.7364L35.4804 65.04C36.1684 65.04 36.7764 64.904 37.3044 64.632C37.8484 64.344 38.3124 63.944 38.6964 63.432C39.0804 62.904 39.3764 62.288 39.5844 61.584H39.8004ZM37.4484 59.304V61.416H37.2084V61.224C37.2084 60.696 37.0404 60.256 36.7044 59.904C36.3844 59.552 35.9444 59.368 35.3844 59.352V59.304H37.4484ZM37.4484 56.328V58.44H35.3844V58.392C35.9444 58.376 36.3844 58.192 36.7044 57.84C37.0404 57.472 37.2084 57.024 37.2084 56.496V56.328H37.4484ZM38.5284 52.512V55.056H38.2884V54.84C38.2884 54.136 38.0964 53.584 37.7124 53.184C37.3444 52.784 36.8084 52.576 36.1044 52.56V52.512H38.5284ZM38.5284 51.24V51.816L36.0084 51.6C36.4724 51.6 36.9604 51.56 37.4724 51.48C37.9844 51.384 38.3364 51.304 38.5284 51.24ZM29.2404 64.488L29.3604 66H27.5844V65.76C27.5844 65.76 27.6324 65.76 27.7284 65.76C27.8244 65.76 27.8804 65.76 27.8964 65.76C28.2484 65.76 28.5444 65.64 28.7844 65.4C29.0404 65.144 29.1764 64.84 29.1924 64.488H29.2404ZM29.2404 53.112H29.1924C29.1764 52.744 29.0404 52.44 28.7844 52.2C28.5444 51.96 28.2484 51.84 27.8964 51.84C27.8804 51.84 27.8244 51.84 27.7284 51.84C27.6324 51.84 27.5844 51.84 27.5844 51.84V51.6H29.3604L29.2404 53.112ZM55.1473 51.288C55.4673 51.288 55.8513 51.304 56.2993 51.336C56.7633 51.368 57.2193 51.408 57.6673 51.456C58.1153 51.488 58.5073 51.536 58.8433 51.6C59.1953 51.648 59.4353 51.696 59.5633 51.744L59.2513 54.672H59.0353C59.0353 53.936 58.7793 53.352 58.2673 52.92C57.7553 52.488 57.0193 52.272 56.0593 52.272C55.2913 52.272 54.6673 52.44 54.1873 52.776C53.7233 53.112 53.4753 53.56 53.4433 54.12C53.4113 54.408 53.4593 54.672 53.5873 54.912C53.7313 55.136 53.9233 55.336 54.1633 55.512C54.4193 55.688 54.6993 55.864 55.0033 56.04L58.7713 58.368C59.4113 58.688 59.9153 59.152 60.2833 59.76C60.6513 60.368 60.8113 61.104 60.7633 61.968C60.7153 62.864 60.4513 63.64 59.9713 64.296C59.5073 64.952 58.8593 65.456 58.0273 65.808C57.2113 66.144 56.2433 66.312 55.1233 66.312C54.4353 66.312 53.7953 66.256 53.2033 66.144C52.6113 66.032 52.0993 65.88 51.6673 65.688C51.2513 65.496 50.9313 65.28 50.7073 65.04C50.5793 64.72 50.5233 64.336 50.5393 63.888C50.5553 63.424 50.6273 62.968 50.7553 62.52C50.8833 62.056 51.0433 61.672 51.2353 61.368H51.4273C51.3793 62.088 51.5073 62.752 51.8113 63.36C52.1313 63.968 52.5953 64.456 53.2033 64.824C53.8113 65.176 54.5393 65.352 55.3873 65.352C56.3153 65.352 57.0113 65.136 57.4753 64.704C57.9393 64.272 58.1713 63.768 58.1713 63.192C58.1713 62.76 58.0273 62.376 57.7393 62.04C57.4673 61.688 57.0113 61.344 56.3713 61.008L52.9633 58.848C52.1633 58.432 51.5793 57.88 51.2113 57.192C50.8593 56.504 50.7313 55.752 50.8273 54.936C50.9073 54.168 51.1313 53.512 51.4993 52.968C51.8833 52.424 52.3873 52.008 53.0113 51.72C53.6353 51.432 54.3473 51.288 55.1473 51.288ZM59.5633 51.504L59.5393 51.936H56.9713V51.504H59.5633ZM79.5536 51.672V66H76.0736V51.672H79.5536ZM84.7856 51.576V52.536H70.8656V51.576H84.7856ZM84.7856 52.464V55.008H84.5216V54.792C84.5376 54.104 84.3456 53.56 83.9456 53.16C83.5616 52.76 83.0256 52.552 82.3376 52.536V52.464H84.7856ZM84.7856 51.216V51.816L82.2416 51.576C82.5456 51.576 82.8736 51.56 83.2256 51.528C83.5776 51.48 83.8976 51.432 84.1856 51.384C84.4736 51.32 84.6736 51.264 84.7856 51.216ZM76.1216 64.488V66H74.5136V65.76C74.5136 65.76 74.5536 65.76 74.6336 65.76C74.7296 65.76 74.7776 65.76 74.7776 65.76C75.1296 65.76 75.4256 65.64 75.6656 65.4C75.9216 65.144 76.0576 64.84 76.0736 64.488H76.1216ZM79.4816 64.488H79.5536C79.5536 64.84 79.6816 65.144 79.9376 65.4C80.1936 65.64 80.5056 65.76 80.8736 65.76C80.8736 65.76 80.9136 65.76 80.9936 65.76C81.0896 65.76 81.1376 65.76 81.1376 65.76V66H79.4816V64.488ZM73.3136 52.464V52.536C72.6096 52.552 72.0656 52.76 71.6816 53.16C71.3136 53.56 71.1296 54.104 71.1296 54.792V55.008H70.8656V52.464H73.3136ZM70.8656 51.216C71.0096 51.248 71.2176 51.296 71.4896 51.36C71.7776 51.424 72.0896 51.48 72.4256 51.528C72.7776 51.56 73.0976 51.576 73.3856 51.576L70.8656 51.816V51.216ZM100.292 50.952L107.396 65.88H103.34L98.8762 55.344L100.292 50.952ZM95.7802 64.416C95.6042 64.848 95.6282 65.184 95.8522 65.424C96.0762 65.648 96.3242 65.76 96.5962 65.76H96.7882V66H91.9882V65.76C91.9882 65.76 92.0202 65.76 92.0842 65.76C92.1482 65.76 92.1802 65.76 92.1802 65.76C92.5002 65.76 92.8362 65.664 93.1882 65.472C93.5402 65.264 93.8282 64.912 94.0522 64.416H95.7802ZM100.292 50.952L100.34 53.832L95.1322 65.928H93.3562L98.9722 53.856C99.0042 53.76 99.0762 53.592 99.1882 53.352C99.3002 53.096 99.4202 52.816 99.5482 52.512C99.6762 52.192 99.7962 51.896 99.9082 51.624C100.02 51.336 100.084 51.112 100.1 50.952H100.292ZM102.38 61.296V62.232H96.2602V61.296H102.38ZM102.74 64.416H106.7C106.94 64.912 107.236 65.264 107.588 65.472C107.94 65.664 108.276 65.76 108.596 65.76C108.596 65.76 108.628 65.76 108.692 65.76C108.756 65.76 108.788 65.76 108.788 65.76V66H101.732V65.76H101.924C102.196 65.76 102.444 65.648 102.668 65.424C102.892 65.184 102.916 64.848 102.74 64.416ZM121.925 51.6V60.648C121.925 62.12 122.261 63.272 122.933 64.104C123.621 64.936 124.573 65.352 125.789 65.352C127.053 65.352 128.029 64.96 128.717 64.176C129.421 63.392 129.781 62.304 129.797 60.912V51.6H131.381V60.768C131.381 62.48 130.853 63.832 129.797 64.824C128.757 65.816 127.277 66.312 125.357 66.312C123.037 66.312 121.309 65.824 120.173 64.848C119.037 63.856 118.469 62.504 118.469 60.792V51.6H121.925ZM118.517 51.6V52.848H118.469C118.453 52.544 118.341 52.296 118.133 52.104C117.925 51.912 117.669 51.816 117.365 51.816C117.365 51.816 117.309 51.816 117.197 51.816C117.085 51.816 117.029 51.816 117.029 51.816V51.6H118.517ZM123.341 51.6V51.816C123.341 51.816 123.285 51.816 123.173 51.816C123.061 51.816 123.005 51.816 123.005 51.816C122.701 51.816 122.445 51.912 122.237 52.104C122.029 52.296 121.925 52.544 121.925 52.848H121.877V51.6H123.341ZM129.845 51.6V52.848H129.797C129.781 52.544 129.669 52.296 129.461 52.104C129.253 51.912 129.005 51.816 128.717 51.816C128.717 51.816 128.661 51.816 128.549 51.816C128.437 51.816 128.381 51.816 128.381 51.816V51.6H129.845ZM132.797 51.6V51.816C132.797 51.816 132.741 51.816 132.629 51.816C132.533 51.816 132.485 51.816 132.485 51.816C132.181 51.816 131.917 51.912 131.693 52.104C131.485 52.296 131.381 52.544 131.381 52.848H131.333V51.6H132.797ZM148.207 51.6H150.799C151.455 51.6 152.095 51.672 152.719 51.816C153.343 51.944 153.903 52.16 154.399 52.464C154.895 52.752 155.287 53.152 155.575 53.664C155.879 54.16 156.031 54.784 156.031 55.536C156.031 56.096 155.911 56.656 155.671 57.216C155.447 57.76 155.087 58.232 154.591 58.632C154.111 59.032 153.479 59.296 152.695 59.424C153.159 59.568 153.599 59.848 154.015 60.264C154.447 60.68 154.783 61.072 155.023 61.44C155.087 61.568 155.199 61.776 155.359 62.064C155.519 62.336 155.719 62.656 155.959 63.024C156.215 63.376 156.479 63.744 156.751 64.128C157.071 64.56 157.351 64.896 157.591 65.136C157.831 65.36 158.079 65.52 158.335 65.616C158.591 65.712 158.887 65.76 159.223 65.76V66H157.207C156.343 66 155.607 65.936 154.999 65.808C154.407 65.68 153.887 65.448 153.439 65.112C153.007 64.76 152.607 64.288 152.239 63.696C152.095 63.488 151.943 63.24 151.783 62.952C151.623 62.648 151.463 62.344 151.303 62.04C151.143 61.736 150.999 61.44 150.871 61.152C150.759 60.864 150.679 60.624 150.631 60.432C150.423 59.92 150.183 59.552 149.911 59.328C149.655 59.088 149.415 58.968 149.191 58.968V58.752C149.191 58.752 149.247 58.752 149.359 58.752C149.471 58.752 149.615 58.752 149.791 58.752C150.127 58.752 150.455 58.696 150.775 58.584C151.111 58.456 151.415 58.224 151.687 57.888C151.959 57.536 152.159 57.024 152.287 56.352C152.319 56.256 152.343 56.12 152.359 55.944C152.391 55.768 152.399 55.568 152.383 55.344C152.351 54.752 152.239 54.28 152.047 53.928C151.871 53.56 151.647 53.288 151.375 53.112C151.103 52.92 150.823 52.792 150.535 52.728C150.263 52.648 150.023 52.608 149.815 52.608C149.511 52.592 149.231 52.592 148.975 52.608C148.735 52.608 148.551 52.6 148.423 52.584C148.407 52.584 148.383 52.504 148.351 52.344C148.319 52.168 148.287 52 148.255 51.84C148.223 51.68 148.207 51.6 148.207 51.6ZM148.447 51.6V66H144.967V51.6H148.447ZM145.039 64.488L145.135 66H143.407V65.76C143.423 65.76 143.463 65.76 143.527 65.76C143.607 65.76 143.663 65.76 143.695 65.76C144.047 65.76 144.343 65.64 144.583 65.4C144.839 65.144 144.975 64.84 144.991 64.488H145.039ZM145.039 53.088H144.991C144.975 52.72 144.839 52.424 144.583 52.2C144.343 51.96 144.055 51.84 143.719 51.84C143.671 51.84 143.607 51.84 143.527 51.84C143.463 51.84 143.423 51.84 143.407 51.84V51.6H145.135L145.039 53.088ZM148.399 64.488H148.447C148.447 64.888 148.583 65.2 148.855 65.424C149.143 65.648 149.447 65.76 149.767 65.76C149.767 65.76 149.799 65.76 149.863 65.76C149.927 65.76 149.975 65.76 150.007 65.76V66H148.279L148.399 64.488ZM175.441 50.952L182.545 65.88H178.489L174.025 55.344L175.441 50.952ZM170.929 64.416C170.753 64.848 170.777 65.184 171.001 65.424C171.225 65.648 171.473 65.76 171.745 65.76H171.937V66H167.137V65.76C167.137 65.76 167.169 65.76 167.233 65.76C167.297 65.76 167.329 65.76 167.329 65.76C167.649 65.76 167.985 65.664 168.337 65.472C168.689 65.264 168.977 64.912 169.201 64.416H170.929ZM175.441 50.952L175.489 53.832L170.281 65.928H168.505L174.121 53.856C174.153 53.76 174.225 53.592 174.337 53.352C174.449 53.096 174.569 52.816 174.697 52.512C174.825 52.192 174.945 51.896 175.057 51.624C175.169 51.336 175.233 51.112 175.249 50.952H175.441ZM177.529 61.296V62.232H171.409V61.296H177.529ZM177.889 64.416H181.849C182.089 64.912 182.385 65.264 182.737 65.472C183.089 65.664 183.425 65.76 183.745 65.76C183.745 65.76 183.777 65.76 183.841 65.76C183.905 65.76 183.937 65.76 183.937 65.76V66H176.881V65.76H177.073C177.345 65.76 177.593 65.648 177.817 65.424C178.041 65.184 178.065 64.848 177.889 64.416ZM194.535 51.264L208.623 63.648L208.863 66.312L194.799 53.928L194.535 51.264ZM194.631 64.536V66H192.855V65.76C192.855 65.76 192.919 65.76 193.047 65.76C193.175 65.76 193.239 65.76 193.239 65.76C193.607 65.76 193.919 65.648 194.175 65.424C194.431 65.184 194.559 64.888 194.559 64.536H194.631ZM197.847 64.536C197.863 64.888 197.999 65.184 198.255 65.424C198.511 65.648 198.815 65.76 199.167 65.76C199.167 65.76 199.231 65.76 199.359 65.76C199.503 65.76 199.575 65.76 199.575 65.76V66H197.799V64.536H197.847ZM194.535 51.264L197.847 54.864V66H194.559V54C194.559 53.184 194.519 52.528 194.439 52.032C194.359 51.52 194.319 51.264 194.319 51.264H194.535ZM208.839 51.6V63.504C208.839 64.064 208.855 64.56 208.887 64.992C208.935 65.408 208.975 65.736 209.007 65.976C209.055 66.2 209.079 66.312 209.079 66.312H208.863L205.551 62.496V51.6H208.839ZM208.767 53.064V51.6H210.567V51.84C210.567 51.84 210.495 51.84 210.351 51.84C210.223 51.84 210.159 51.84 210.159 51.84C209.807 51.84 209.495 51.96 209.223 52.2C208.967 52.424 208.839 52.712 208.839 53.064H208.767ZM205.551 53.064C205.535 52.712 205.399 52.424 205.143 52.2C204.903 51.96 204.599 51.84 204.231 51.84C204.231 51.84 204.159 51.84 204.015 51.84C203.887 51.84 203.823 51.84 203.823 51.84V51.6H205.599V53.064H205.551ZM229.102 51.672V66H225.622V51.672H229.102ZM234.334 51.576V52.536H220.414V51.576H234.334ZM234.334 52.464V55.008H234.07V54.792C234.086 54.104 233.894 53.56 233.494 53.16C233.11 52.76 232.574 52.552 231.886 52.536V52.464H234.334ZM234.334 51.216V51.816L231.79 51.576C232.094 51.576 232.422 51.56 232.774 51.528C233.126 51.48 233.446 51.432 233.734 51.384C234.022 51.32 234.222 51.264 234.334 51.216ZM225.67 64.488V66H224.062V65.76C224.062 65.76 224.102 65.76 224.182 65.76C224.278 65.76 224.326 65.76 224.326 65.76C224.678 65.76 224.974 65.64 225.214 65.4C225.47 65.144 225.606 64.84 225.622 64.488H225.67ZM229.03 64.488H229.102C229.102 64.84 229.23 65.144 229.486 65.4C229.742 65.64 230.054 65.76 230.422 65.76C230.422 65.76 230.462 65.76 230.542 65.76C230.638 65.76 230.686 65.76 230.686 65.76V66H229.03V64.488ZM222.862 52.464V52.536C222.158 52.552 221.614 52.76 221.23 53.16C220.862 53.56 220.678 54.104 220.678 54.792V55.008H220.414V52.464H222.862ZM220.414 51.216C220.558 51.248 220.766 51.296 221.038 51.36C221.326 51.424 221.638 51.48 221.974 51.528C222.326 51.56 222.646 51.576 222.934 51.576L220.414 51.816V51.216Z" fill="white"/>
</svg>
