<svg width="48" height="48" viewBox="0 0 48 48" fill="none" xmlns="http://www.w3.org/2000/svg">
<path fill-rule="evenodd" clip-rule="evenodd" d="M32.56 22.9402C32.8409 23.2214 32.9987 23.6027 32.9987 24.0002C32.9987 24.3977 32.8409 24.7789 32.56 25.0602L17.56 40.0602C17.2756 40.3251 16.8996 40.4694 16.511 40.4625C16.1224 40.4557 15.7516 40.2983 15.4768 40.0234C15.2019 39.7486 15.0445 39.3778 15.0376 38.9892C15.0308 38.6006 15.175 38.2245 15.44 37.9402L29.38 24.0002L15.44 10.0602C15.175 9.77583 15.0308 9.39974 15.0376 9.01114C15.0445 8.62253 15.2019 8.25176 15.4768 7.97694C15.7516 7.70211 16.1224 7.54469 16.511 7.53783C16.8996 7.53097 17.2756 7.67522 17.56 7.94018L32.56 22.9402Z" fill="#007AFF"/>
</svg>
